<?xml version="1.0" standalone="no"?>
<!DOCTYPE svg PUBLIC "-//W3C//DTD SVG 20010904//EN"
 "http://www.w3.org/TR/2001/REC-SVG-20010904/DTD/svg10.dtd">
<svg version="1.0" xmlns="http://www.w3.org/2000/svg"
 width="1935.000000pt" height="806.000000pt" viewBox="0 0 1935.000000 806.000000"
 preserveAspectRatio="xMidYMid meet">

<g transform="translate(0.000000,806.000000) scale(0.100000,-0.100000)"
fill="#000000" stroke="none">
<path d="M1851 7399 c-198 -25 -410 -132 -565 -285 -285 -282 -475 -699 -570
-1254 -46 -265 -50 -340 -50 -830 0 -451 1 -470 26 -635 62 -404 146 -685 284
-955 193 -375 463 -609 803 -695 121 -30 149 -43 184 -84 34 -41 51 -100 77
-261 12 -74 32 -176 45 -226 82 -324 260 -549 497 -628 148 -50 405 -56 643
-15 61 10 136 19 167 19 68 0 102 14 117 47 14 30 15 213 1 213 -6 0 -10 41
-10 103 l0 103 -44 37 c-28 23 -51 53 -61 82 -24 61 -43 64 -157 27 -117 -38
-204 -47 -299 -33 -234 36 -373 209 -396 491 -11 141 23 208 162 319 456 363
699 1045 722 2021 15 674 -88 1262 -294 1674 -103 206 -195 338 -322 464 -171
169 -369 271 -585 301 -88 13 -280 12 -375 0z m321 -690 c101 -21 176 -65 269
-158 99 -99 159 -195 220 -349 130 -334 197 -859 170 -1332 -14 -230 -41 -461
-72 -613 -44 -215 -141 -453 -233 -574 -69 -91 -179 -188 -254 -225 l-67 -33
-160 0 -161 0 -78 38 c-266 132 -444 486 -520 1034 -50 360 -42 903 19 1258
67 391 171 632 345 798 91 88 155 128 241 151 65 18 208 20 281 5z"/>
<path d="M16725 7385 c-262 -48 -499 -142 -709 -282 -107 -71 -258 -208 -283
-256 -18 -35 -10 -73 16 -82 31 -9 66 10 186 104 365 286 720 407 1131 388
344 -17 644 -126 917 -334 195 -149 217 -163 248 -163 39 0 54 29 39 75 -15
46 -167 189 -283 265 -218 145 -531 263 -770 289 -128 15 -405 12 -492 -4z"/>
<path d="M4187 7303 c-10 -3 -23 -17 -29 -31 -17 -43 -21 -981 -9 -2162 6
-586 16 -1101 21 -1144 25 -196 106 -482 181 -636 143 -298 369 -494 656 -572
113 -30 460 -38 583 -13 361 73 622 309 771 693 58 151 114 386 140 582 7 57
13 601 16 1666 l5 1582 -22 22 c-21 21 -26 22 -248 18 -240 -3 -268 -9 -276
-51 -3 -12 -10 -704 -16 -1537 -5 -849 -14 -1552 -20 -1599 -16 -138 -57 -288
-106 -389 -81 -168 -204 -266 -381 -306 -89 -20 -147 -20 -238 -1 -219 46
-364 197 -439 457 -60 207 -58 159 -62 1753 -2 803 -7 1498 -10 1544 -5 70
-10 88 -30 107 -23 24 -25 24 -246 23 -123 -1 -231 -3 -241 -6z"/>
<path d="M7432 7292 c-18 -18 -20 -42 -27 -248 -12 -363 1 -4157 14 -4182 6
-11 21 -24 33 -28 34 -11 387 -5 409 7 10 5 23 19 30 30 7 14 13 420 19 1352
5 733 12 1375 16 1427 6 101 21 150 56 187 26 28 32 28 69 2 61 -43 90 -130
265 -794 209 -792 276 -1040 290 -1067 8 -15 24 -33 36 -39 32 -17 260 -25
297 -10 50 21 44 0 251 796 261 1000 279 1058 360 1115 29 20 30 20 49 3 30
-29 49 -75 61 -144 6 -41 12 -536 16 -1394 2 -731 7 -1354 10 -1383 10 -94 7
-94 279 -90 175 2 237 6 247 16 10 10 14 199 20 935 8 1225 0 3453 -14 3489
-7 20 -19 29 -42 33 -17 3 -162 5 -323 3 -257 -3 -294 -5 -309 -20 -21 -21
-54 -133 -285 -978 -332 -1212 -329 -1203 -389 -1254 -60 -50 -117 -20 -164
83 -32 73 -50 133 -331 1161 -129 470 -243 881 -254 914 -32 97 -9 91 -361 94
-294 3 -310 2 -328 -16z"/>
<path d="M11087 7301 c-21 -4 -43 -13 -49 -19 -27 -27 -34 -161 -21 -416 8
-186 0 -178 184 -186 151 -7 183 -16 226 -62 50 -54 48 15 51 -1543 3 -1621 7
-1517 -63 -1571 -47 -36 -83 -44 -233 -52 -79 -5 -137 -13 -144 -20 -17 -17
-32 -309 -23 -451 6 -92 11 -117 26 -132 18 -18 45 -19 717 -19 551 0 702 3
716 13 9 7 21 30 26 52 14 60 13 488 -2 519 -13 30 -28 33 -183 39 -66 3 -124
10 -145 19 -46 19 -86 67 -102 121 -19 63 -18 2883 1 2947 32 109 74 132 263
140 114 4 140 8 155 23 16 16 18 41 18 270 0 139 -3 264 -8 279 -4 15 -16 32
-26 38 -24 12 -1329 23 -1384 11z"/>
<path d="M14081 7301 c-40 -11 -62 -53 -91 -177 -16 -66 -223 -976 -460 -2024
-237 -1048 -450 -1982 -472 -2077 -34 -142 -39 -174 -29 -187 12 -14 43 -15
245 -10 127 3 243 10 258 16 16 6 31 22 38 41 6 18 44 185 85 372 81 380 100
440 150 484 62 54 80 56 570 56 503 0 511 -1 575 -65 50 -50 61 -87 144 -477
75 -349 81 -372 100 -398 13 -18 33 -20 267 -28 299 -9 290 -12 270 80 -79
365 -909 4037 -956 4227 -19 77 -41 146 -50 155 -14 14 -57 16 -318 18 -166 1
-313 -2 -326 -6z m351 -1126 c10 -11 27 -45 39 -75 27 -69 109 -437 194 -860
126 -637 129 -676 57 -754 -50 -53 -62 -55 -367 -47 -317 7 -317 7 -356 88
-41 84 -22 227 112 853 152 706 167 762 227 817 34 32 36 32 56 15 11 -9 28
-26 38 -37z"/>
<path d="M16870 6963 c-276 -30 -555 -154 -757 -337 -105 -96 -130 -186 -50
-186 36 0 55 11 145 87 232 195 495 293 787 293 294 0 530 -87 789 -290 35
-27 80 -57 99 -65 32 -13 37 -13 57 3 19 15 21 24 15 52 -14 65 -192 217 -342
293 -220 112 -525 173 -743 150z"/>
<path d="M16815 6524 c-148 -32 -301 -113 -411 -217 -77 -72 -100 -111 -90
-152 6 -25 58 -65 84 -65 6 0 50 35 96 78 97 89 167 134 263 167 245 86 482
42 707 -129 111 -85 138 -96 174 -69 17 12 28 31 30 50 9 91 -236 269 -445
324 -107 28 -312 34 -408 13z"/>
<path d="M16462 5937 c-30 -17 -87 -98 -108 -153 -14 -37 -16 -77 -11 -311 6
-291 11 -331 62 -438 27 -56 54 -90 130 -165 53 -52 104 -111 113 -130 12 -28
17 -102 23 -385 5 -192 13 -365 18 -383 17 -58 59 -118 119 -174 33 -29 65
-64 72 -78 32 -58 64 -611 57 -970 -7 -317 -18 -387 -78 -500 -60 -113 -208
-249 -309 -285 -88 -31 -143 -16 -240 66 -46 38 -58 44 -99 44 -36 0 -56 -6
-84 -27 -33 -26 -35 -30 -26 -60 5 -18 9 -34 9 -36 0 -1 -10 4 -22 12 -13 8
-48 19 -78 25 -30 6 -86 18 -125 26 -60 12 -479 14 -2830 15 -1748 0 -2786 -3
-2830 -10 -97 -13 -1219 -12 -1490 2 -121 6 -245 11 -275 10 -30 0 -1097 -5
-2370 -9 -1992 -8 -2321 -11 -2355 -23 l-40 -15 -7 -85 c-13 -171 -10 -246 11
-271 l19 -24 2789 -3 c1533 -1 3533 3 4443 9 910 7 2409 15 3330 19 1745 6
1701 5 1791 44 11 5 19 -1 27 -19 11 -23 17 -25 72 -25 78 0 110 17 150 80 47
72 101 115 194 150 185 70 351 218 430 382 24 51 50 118 56 148 7 32 15 230
20 472 7 335 12 429 26 480 9 35 19 129 23 213 5 93 12 159 21 175 7 13 44 57
82 97 104 110 107 121 109 348 0 105 4 262 8 350 8 197 14 211 146 356 149
164 162 203 175 534 8 215 3 334 -18 386 -15 38 -69 97 -106 116 -42 22 -244
32 -661 32 -256 0 -346 -3 -363 -12z m323 -632 c51 -19 72 -19 144 1 55 16 62
16 116 -1 55 -18 60 -18 125 -1 67 18 70 18 106 0 51 -26 77 -63 77 -113 0
-48 -22 -85 -66 -111 -41 -25 -73 -25 -136 0 -46 18 -54 18 -92 5 -55 -20
-109 -19 -160 2 -40 15 -45 15 -90 0 -69 -25 -121 -22 -158 8 -76 65 -56 187
35 215 41 12 54 11 99 -5z m300 -740 c80 -46 109 -152 95 -346 -9 -125 -30
-176 -92 -216 -34 -23 -53 -28 -103 -28 -108 0 -170 61 -194 190 -22 119 -7
271 34 341 54 92 161 116 260 59z"/>
</g>
</svg>
