<?xml version="1.0" standalone="no"?>
<!DOCTYPE svg PUBLIC "-//W3C//DTD SVG 20010904//EN"
 "http://www.w3.org/TR/2001/REC-SVG-20010904/DTD/svg10.dtd">
<svg version="1.0" xmlns="http://www.w3.org/2000/svg"
 width="2419.000000pt" height="1008.000000pt" viewBox="0 0 2419.000000 1008.000000"
 preserveAspectRatio="xMidYMid meet">

<g transform="translate(0.000000,1008.000000) scale(0.100000,-0.100000)"
fill="#000000" stroke="none">
<path d="M2364 9260 c-348 -29 -686 -233 -934 -563 -272 -363 -441 -800 -544
-1402 -50 -294 -51 -322 -51 -1000 0 -701 -2 -672 66 -1025 73 -374 163 -657
293 -920 115 -232 225 -390 381 -545 180 -179 369 -292 605 -360 182 -53 209
-64 251 -102 53 -48 71 -103 123 -381 83 -436 172 -640 365 -832 97 -97 176
-149 288 -189 126 -46 206 -56 443 -56 227 1 413 21 475 52 43 22 144 91 184
126 19 16 47 34 63 39 l29 10 -5 82 c-3 44 -9 135 -12 201 l-5 120 -54 55
c-29 30 -62 74 -74 97 -12 24 -33 50 -46 59 -28 18 -30 18 -225 -36 -442 -123
-787 147 -793 620 -3 176 7 191 287 444 417 376 681 1012 775 1871 92 833 26
1681 -179 2295 -203 610 -513 1019 -925 1221 -226 111 -453 146 -781 119z
m417 -894 c213 -74 419 -303 534 -595 224 -567 285 -1438 159 -2275 -48 -322
-154 -634 -285 -836 -82 -127 -249 -280 -376 -344 -51 -26 -56 -26 -259 -26
l-207 0 -90 48 c-308 161 -519 549 -622 1142 -89 520 -85 1249 11 1770 85 461
216 749 434 954 169 158 280 199 517 191 87 -3 129 -10 184 -29z"/>
<path d="M21050 9249 c-402 -22 -879 -221 -1211 -506 -157 -135 -202 -198
-178 -255 25 -61 89 -37 274 107 307 239 625 387 970 452 109 20 427 28 551
14 414 -48 714 -174 1095 -461 202 -154 245 -173 282 -132 39 43 2 117 -110
222 -159 149 -292 238 -516 345 -377 179 -699 239 -1157 214z"/>
<path d="M5216 9117 c-22 -22 -24 -35 -30 -148 -20 -428 -12 -2716 14 -3679 9
-335 11 -363 39 -500 151 -733 454 -1155 949 -1320 129 -43 236 -54 507 -54
231 -1 244 1 350 28 182 47 310 108 454 216 210 158 382 415 484 721 67 201
129 479 147 666 7 67 14 855 20 2073 l10 1965 -31 28 -31 29 -277 -4 c-284 -5
-335 -12 -345 -46 -13 -47 -17 -267 -26 -1572 -6 -778 -15 -1638 -20 -1910
-10 -549 -14 -582 -86 -799 -102 -308 -273 -470 -554 -527 -144 -29 -294 -7
-440 64 -92 45 -216 164 -273 262 -74 129 -139 337 -157 504 -6 52 -14 878
-20 1936 -5 1040 -14 1886 -19 1940 -9 88 -13 97 -41 123 l-30 27 -286 0 -285
0 -23 -23z"/>
<path d="M9295 9118 c-26 -23 -27 -28 -36 -168 -10 -181 -10 -3534 0 -4580 5
-559 11 -781 19 -797 7 -12 22 -25 34 -30 33 -12 462 -6 501 6 18 6 38 21 46
33 17 27 25 461 41 2308 6 724 14 1210 21 1250 13 81 44 148 76 163 20 9 32 7
61 -8 71 -38 114 -160 291 -825 399 -1497 392 -1473 418 -1509 33 -44 64 -52
221 -58 161 -6 206 3 236 49 24 38 76 221 256 910 270 1032 320 1207 376 1325
71 149 154 153 200 9 19 -58 28 -565 42 -2511 6 -772 11 -1078 20 -1097 19
-45 59 -50 360 -46 205 2 274 6 284 16 9 9 15 59 20 150 12 246 20 3722 10
4566 l-9 820 -28 24 -28 23 -381 -3 c-281 -2 -387 -6 -403 -15 -38 -23 -58
-87 -423 -1418 -346 -1260 -371 -1339 -444 -1384 -47 -29 -79 -26 -121 10 -69
61 -89 120 -309 919 -382 1390 -469 1702 -492 1773 -39 117 -15 111 -460 115
l-371 3 -28 -23z"/>
<path d="M13857 9131 c-55 -12 -74 -36 -86 -111 -20 -120 -6 -557 19 -612 18
-39 50 -48 209 -59 167 -11 213 -21 259 -55 52 -40 63 -73 72 -218 11 -177 20
-2937 11 -3301 -8 -316 -13 -341 -67 -384 -52 -41 -97 -52 -267 -67 -93 -8
-179 -19 -191 -24 -30 -11 -33 -28 -47 -261 -13 -220 -2 -423 25 -465 11 -15
29 -25 58 -29 24 -3 422 -5 884 -3 959 3 874 -6 894 94 13 62 9 608 -4 637
-15 31 -43 38 -199 48 -84 5 -169 14 -190 20 -47 12 -102 60 -129 113 -21 40
-22 52 -31 921 -5 541 -5 1250 1 1840 9 935 10 961 30 1006 23 54 69 93 127
108 22 6 109 15 193 21 84 5 162 14 172 20 11 6 23 23 27 38 5 15 8 168 7 340
0 298 -1 313 -21 340 -15 20 -32 29 -69 34 -74 10 -1643 19 -1687 9z"/>
<path d="M17603 9129 c-17 -5 -41 -22 -51 -37 -41 -57 8 148 -656 -2777 -228
-1007 -460 -2028 -516 -2271 -55 -243 -100 -453 -100 -467 0 -16 8 -30 19 -37
24 -12 332 -13 494 0 132 10 159 21 176 72 6 18 51 215 101 438 49 223 99 434
110 470 31 102 68 153 137 186 l58 29 590 0 c651 0 636 1 707 -63 73 -66 85
-104 202 -642 87 -397 99 -440 125 -464 24 -22 197 -35 467 -36 154 0 174 2
195 19 l24 19 -74 329 c-134 601 -577 2566 -800 3548 -382 1685 -374 1655
-414 1677 -27 16 -744 22 -794 7z m420 -1396 c59 -63 97 -189 206 -698 128
-597 218 -1077 228 -1217 7 -106 -8 -155 -66 -212 -58 -57 -104 -61 -472 -49
-355 11 -366 14 -408 95 -57 113 -36 283 130 1058 148 688 195 884 234 961 27
53 66 89 95 89 16 0 37 -11 53 -27z"/>
<path d="M21080 8710 c-185 -22 -396 -87 -574 -176 -259 -130 -486 -331 -486
-431 0 -52 68 -69 129 -32 18 11 70 50 115 86 220 180 429 283 686 339 122 27
478 27 600 0 236 -51 424 -143 670 -325 116 -86 161 -108 195 -93 82 38 16
153 -170 296 -180 139 -334 213 -570 276 -198 53 -444 78 -595 60z"/>
<path d="M21075 8170 c-87 -12 -217 -56 -315 -105 -190 -96 -370 -264 -370
-346 0 -33 30 -72 72 -92 40 -20 44 -18 171 92 162 139 271 197 442 232 242
50 473 -1 698 -155 37 -25 97 -66 133 -91 44 -30 76 -45 98 -45 37 0 73 29 82
65 31 124 -324 376 -604 429 -100 19 -326 28 -407 16z"/>
<path d="M20593 7429 c-67 -19 -156 -174 -167 -289 -11 -105 12 -635 29 -709
28 -116 85 -207 217 -348 67 -70 128 -144 136 -163 10 -26 17 -132 27 -435 8
-220 17 -429 20 -465 8 -89 50 -163 157 -276 97 -103 101 -112 117 -269 26
-252 35 -472 36 -875 0 -467 -7 -558 -50 -683 -37 -107 -82 -174 -190 -282
-111 -110 -180 -156 -269 -179 -91 -24 -128 -11 -284 99 -67 48 -110 56 -169
34 -38 -14 -83 -58 -83 -81 0 -32 -27 -32 -168 -2 l-137 29 -3460 -2 c-1903
-1 -3892 -2 -4420 -4 -528 -1 -1039 2 -1135 8 -197 11 -4382 -1 -5460 -16
-671 -9 -710 -12 -725 -49 -3 -9 -9 -100 -11 -202 -5 -166 -4 -189 13 -220 13
-24 28 -37 53 -43 46 -12 8505 -2 10560 12 866 6 2273 16 3125 21 853 6 1575
14 1605 19 30 5 77 12 103 16 43 7 50 5 63 -14 13 -18 25 -21 85 -21 88 0 127
16 170 71 19 24 61 71 94 104 51 52 77 68 171 108 155 67 253 133 365 246 103
104 159 188 209 316 41 105 47 163 59 655 12 462 17 545 36 651 8 41 19 143
25 225 17 252 13 239 131 369 82 90 104 123 121 179 5 17 13 204 19 416 5 212
14 412 20 444 16 88 46 138 154 261 212 239 228 297 229 805 1 354 -1 368 -83
452 -67 67 -90 75 -268 88 -165 12 -1028 11 -1070 -1z m427 -808 c38 -10 58
-10 114 3 83 20 125 20 196 1 48 -13 62 -13 118 0 87 21 123 19 162 -7 74 -51
96 -119 61 -190 -42 -86 -122 -111 -229 -73 -46 17 -59 18 -110 7 -79 -16
-143 -15 -208 4 -49 14 -58 14 -113 -2 -81 -22 -162 -16 -196 16 -34 32 -59
101 -51 144 11 59 56 102 121 116 30 6 46 4 135 -19z m293 -897 c130 -44 185
-205 158 -459 -17 -162 -47 -222 -135 -267 -57 -29 -178 -23 -228 11 -91 63
-139 221 -123 411 21 252 144 367 328 304z"/>
</g>
</svg>
